<svg width="18" height="16" viewBox="0 0 18 16" fill="none" xmlns="http://www.w3.org/2000/svg">
<path d="M6.27236 0.315915L-0.713519 7.30179C-0.778859 7.37655 -0.832678 7.46064 -0.873196 7.55128L-0.933075 7.63112C-0.974564 7.75318 -0.994817 7.88145 -0.992954 8.01036C-1.00235 8.09326 -1.00235 8.17695 -0.992954 8.25985L-0.992954 8.38959C-0.95651 8.4541 -0.912996 8.51435 -0.863216 8.56923L-0.773398 8.71892L6.21248 15.7048C6.30525 15.7983 6.41563 15.8726 6.53725 15.9232C6.65886 15.9739 6.7893 16 6.92104 16C7.05279 16 7.18323 15.9739 7.30485 15.9232C7.42646 15.8726 7.53684 15.7983 7.62961 15.7048C7.72315 15.612 7.7974 15.5016 7.84806 15.38C7.89873 15.2584 7.92481 15.128 7.92481 14.9962C7.92481 14.8645 7.89873 14.734 7.84806 14.6124C7.7974 14.4908 7.72315 14.3804 7.62961 14.2877L2.38023 9.00834L17.4597 9.00834C17.7244 9.00834 17.9783 8.90319 18.1654 8.71604C18.3526 8.52888 18.4577 8.27504 18.4577 8.01036C18.4577 7.74567 18.3526 7.49183 18.1654 7.30468C17.9783 7.11752 17.7244 7.01237 17.4597 7.01237L2.42015 7.01237L7.72941 1.73305C7.82295 1.64027 7.89719 1.5299 7.94786 1.40828C7.99853 1.28667 8.02461 1.15623 8.02461 1.02448C8.02461 0.892735 7.99853 0.762293 7.94786 0.64068C7.89719 0.519066 7.82295 0.40869 7.72941 0.315915C7.63606 0.216205 7.52323 0.136718 7.39792 0.082378C7.27261 0.0280377 7.13747 -3.557e-07 7.00088 -3.4973e-07C6.8643 -3.43759e-07 6.72916 0.0280377 6.60385 0.0823781C6.47853 0.136718 6.36571 0.216205 6.27236 0.315915Z" fill="#008444"/>
</svg>
