<svg width="26" height="23" viewBox="0 0 26 23" fill="none" xmlns="http://www.w3.org/2000/svg">
<path d="M23.3125 4.26563H19.3281L18.3789 1.60547C18.3133 1.42344 18.1931 1.2661 18.0348 1.15493C17.8764 1.04377 17.6876 0.984204 17.4941 0.984375H8.50586C8.11035 0.984375 7.75586 1.2334 7.62402 1.60547L6.67188 4.26563H2.6875C1.39258 4.26563 0.34375 5.31445 0.34375 6.60938V19.9688C0.34375 21.2637 1.39258 22.3125 2.6875 22.3125H23.3125C24.6074 22.3125 25.6562 21.2637 25.6562 19.9688V6.60938C25.6562 5.31445 24.6074 4.26563 23.3125 4.26563ZM23.5469 19.9688C23.5469 20.0977 23.4414 20.2031 23.3125 20.2031H2.6875C2.55859 20.2031 2.45312 20.0977 2.45312 19.9688V6.60938C2.45312 6.48047 2.55859 6.375 2.6875 6.375H8.15723L8.6582 4.97461L9.3291 3.09375H16.668L17.3389 4.97461L17.8398 6.375H23.3125C23.4414 6.375 23.5469 6.48047 23.5469 6.60938V19.9688ZM13 8.25C10.4102 8.25 8.3125 10.3477 8.3125 12.9375C8.3125 15.5273 10.4102 17.625 13 17.625C15.5898 17.625 17.6875 15.5273 17.6875 12.9375C17.6875 10.3477 15.5898 8.25 13 8.25ZM13 15.75C11.4473 15.75 10.1875 14.4902 10.1875 12.9375C10.1875 11.3848 11.4473 10.125 13 10.125C14.5527 10.125 15.8125 11.3848 15.8125 12.9375C15.8125 14.4902 14.5527 15.75 13 15.75Z" fill="#008444"/>
</svg>
