<svg width="12" height="12" viewBox="0 0 12 12" fill="none" xmlns="http://www.w3.org/2000/svg">
<path d="M4.24996 11.8333C4.09525 11.8333 3.94688 11.7718 3.83748 11.6624C3.72808 11.553 3.66663 11.4047 3.66663 11.25V9.49996H1.33329C1.02387 9.49996 0.727127 9.37704 0.508335 9.15825C0.289542 8.93946 0.166626 8.64271 0.166626 8.33329V1.33329C0.166626 1.02387 0.289542 0.727127 0.508335 0.508335C0.727127 0.289542 1.02387 0.166626 1.33329 0.166626H10.6666C10.976 0.166626 11.2728 0.289542 11.4916 0.508335C11.7104 0.727127 11.8333 1.02387 11.8333 1.33329V8.33329C11.8333 8.64271 11.7104 8.93946 11.4916 9.15825C11.2728 9.37704 10.976 9.49996 10.6666 9.49996H7.10829L4.94996 11.6641C4.83329 11.775 4.68746 11.8333 4.54163 11.8333H4.24996Z" fill="#022B55"/>
</svg>
