<svg width="20" height="43" viewBox="0 0 20 43" fill="none" xmlns="http://www.w3.org/2000/svg">
<path d="M4.23694 37.5457L9.47634 42.7851C9.53241 42.8341 9.59548 42.8745 9.66346 42.9049L9.72334 42.9498C9.81489 42.9809 9.91109 42.9961 10.0078 42.9947C10.0699 43.0018 10.1327 43.0018 10.1949 42.9947L10.2922 42.9947C10.3406 42.9674 10.3858 42.9347 10.4269 42.8974L10.5392 42.83L15.7786 37.5906C15.8488 37.5211 15.9044 37.4383 15.9424 37.3471C15.9804 37.2559 16 37.158 16 37.0592C16 36.9604 15.9804 36.8626 15.9424 36.7714C15.9044 36.6802 15.8488 36.5974 15.7786 36.5278C15.709 36.4576 15.6262 36.402 15.535 36.364C15.4438 36.326 15.346 36.3064 15.2472 36.3064C15.1484 36.3064 15.0505 36.326 14.9593 36.364C14.8681 36.402 14.7853 36.4576 14.7157 36.5278L10.7563 40.4648L10.7563 29.1552C10.7563 28.9567 10.6774 28.7663 10.537 28.6259C10.3967 28.4856 10.2063 28.4067 10.0078 28.4067C9.80925 28.4067 9.61887 28.4856 9.47851 28.6259C9.33814 28.7663 9.25928 28.9567 9.25928 29.1552L9.25928 40.4349L5.29979 36.4529C5.2302 36.3828 5.14742 36.3271 5.05621 36.2891C4.965 36.2511 4.86717 36.2315 4.76836 36.2315C4.66955 36.2315 4.57172 36.2511 4.48051 36.2891C4.3893 36.3271 4.30652 36.3828 4.23694 36.4529C4.16215 36.523 4.10254 36.6076 4.06178 36.7016C4.02103 36.7955 4 36.8969 4 36.9993C4 37.1018 4.02103 37.2031 4.06178 37.2971C4.10254 37.3911 4.16215 37.4757 4.23694 37.5457Z" fill="#616161"/>
<rect x="8" y="8" width="4" height="9" rx="2" fill="#616161"/>
<rect x="0.5" y="0.5" width="19" height="32" rx="9.5" stroke="#616161"/>
</svg>
