<svg width="14" height="14" viewBox="0 0 14 14" fill="none" xmlns="http://www.w3.org/2000/svg">
<path d="M11.9266 2.05908C11.1934 1.31924 10.3033 0.753553 9.3222 0.403792C8.34105 0.0540298 7.29386 -0.0708711 6.25797 0.0383125C3.04748 0.361986 0.40561 2.96887 0.0469448 6.17936C-0.434191 10.4221 2.84628 14 6.98405 14C8.30508 14 9.59899 13.6252 10.7155 12.919C11.8319 12.2129 12.7251 11.2045 13.2913 10.0109C13.5712 9.42484 13.1513 8.75125 12.504 8.75125C12.1803 8.75125 11.8741 8.9262 11.7342 9.21489C11.2263 10.3075 10.3576 11.1919 9.27418 11.7193C8.1908 12.2466 6.95886 12.3847 5.78558 12.1104C3.84354 11.6818 2.27767 10.0984 1.86651 8.15639C1.69368 7.38855 1.69568 6.59167 1.87237 5.82471C2.04906 5.05775 2.39591 4.34032 2.88726 3.72549C3.37862 3.11067 4.00192 2.61417 4.71105 2.27272C5.42018 1.93128 6.197 1.75363 6.98405 1.75291C8.4362 1.75291 9.7309 2.35651 10.6757 3.31004L9.35474 4.63097C8.80362 5.18209 9.18853 6.12687 9.96709 6.12687H13.1076C13.5887 6.12687 13.9824 5.73321 13.9824 5.25208V2.11157C13.9824 1.33301 13.0376 0.939349 12.4865 1.49047L11.9266 2.05908Z" fill="#008444"/>
</svg>
