<svg data-v-467055a8="" xmlns="http://www.w3.org/2000/svg" width="40" height="40" viewBox="0 0 40 40"><g fill="none"><circle cx="12" cy="12" r="12" fill="gray"></circle><path fill="#FFF" d="M12.171 9.514l.258.257c.171.172.342.515.428.772-.6 0-1.2.257-1.628.686-.943.942-.943 2.485 0 3.428L12.77 16.2c.943.943 2.486.943 3.429 0l.123-.132c.818-.95.777-2.397-.123-3.297l-1.114-1.114c.085-.514 0-1.028-.086-1.543.171.086.257.172.429.343l1.542 1.457c1.372 1.457 1.372 3.686 0 5.057l-.175.165c-.654.576-1.446.864-2.31.864-.857 0-1.8-.343-2.486-1.029l-1.543-1.542c-1.371-1.372-1.371-3.6 0-4.972.514-.514 1.114-.771 1.714-.943zM7.18 6.887c1.38-1.228 3.499-1.18 4.821.142l1.543 1.542c1.371 1.372 1.371 3.6 0 4.972l-.175.162c-.473.408-1.006.628-1.54.78l-.257-.256c-.171-.172-.342-.515-.428-.772.6 0 1.2-.257 1.628-.686l.123-.132c.818-.95.777-2.396-.123-3.296L11.23 7.8c-.943-.943-2.486-.943-3.429 0l-.123.132c-.818.95-.777 2.397.123 3.297l1.114 1.114c-.085.514-.085 1.028.086 1.543-.171-.086-.257-.172-.429-.343L7.03 12c-1.372-1.371-1.372-3.6 0-4.971z"></path></g></svg>