<svg width="444" height="743" viewBox="0 0 444 743" fill="none" xmlns="http://www.w3.org/2000/svg">
<g clip-path="url(#clip0)">
<path d="M438.797 83.392L327.219 147.673C324.328 149.411 320.281 149.411 317.391 147.673L205.812 83.392C198.875 79.3383 198.875 69.4934 205.812 66.0187L317.391 1.15823C320.281 -0.579109 324.328 -0.579109 327.219 1.15823L438.797 65.4396C445.734 69.4934 445.734 79.3383 438.797 83.392Z" fill="#F5F5F5"/>
<path d="M438.797 676.981L327.219 741.263C324.328 743 320.281 743 317.391 741.263L205.812 676.981C198.875 672.927 198.875 663.083 205.812 659.608L317.391 595.327C320.281 593.589 324.328 593.589 327.219 595.327L438.797 659.608C445.734 663.083 445.734 672.927 438.797 676.981Z" fill="#F5F5F5"/>
<path d="M0 190.528V319.67C0 327.198 8.67187 332.41 15.0312 328.356L126.609 264.075C129.5 262.337 131.812 258.863 131.812 255.388V126.246C131.812 118.718 123.141 113.506 116.781 117.56L5.20312 181.841C1.73437 183.578 0 187.053 0 190.528Z" fill="#F5F5F5"/>
<path d="M131.812 487.612V616.754C131.812 624.282 123.141 629.494 116.781 625.44L5.20312 560.58C1.73437 558.843 0 555.947 0 551.893V423.33C0 415.802 8.67187 410.59 15.0312 414.644L126.609 478.925C130.078 480.662 131.812 484.137 131.812 487.612Z" fill="#F5F5F5"/>
<path d="M381.562 479.504V551.893C381.562 555.368 379.828 558.843 376.359 560.58L327.219 588.956C324.328 590.694 320.281 590.694 317.391 588.956L268.25 560.58C265.359 558.843 263.047 555.368 263.047 551.893V479.504C263.047 476.03 264.781 472.555 268.25 470.818L317.391 442.441C320.281 440.704 324.328 440.704 327.219 442.441L376.359 470.818C379.25 472.555 381.562 476.03 381.562 479.504Z" fill="#F5F5F5"/>
<path d="M381.562 190.528V262.917C381.562 266.391 379.828 269.866 376.359 271.603L327.219 299.98C324.328 301.717 320.281 301.717 317.391 299.98L268.25 272.182C265.359 270.445 263.047 266.97 263.047 263.496V190.528C263.047 187.053 264.781 183.578 268.25 181.841L317.391 153.465C320.281 151.727 324.328 151.727 327.219 153.465L376.359 181.841C379.25 183.578 381.562 187.053 381.562 190.528Z" fill="#F5F5F5"/>
<path d="M263.625 275.078V331.831C263.625 335.306 261.891 338.78 258.422 340.518L209.281 368.894C206.391 370.631 202.344 370.631 199.453 368.894L137.016 332.41C134.125 330.673 131.812 327.198 131.812 323.723V266.97C131.812 263.496 133.547 260.021 137.016 258.284L186.156 229.907C189.047 228.17 193.094 228.17 195.984 229.907L258.422 266.391C261.313 268.129 263.625 271.024 263.625 275.078Z" fill="#F5F5F5"/>
<path d="M263.625 411.169V467.922C263.625 471.397 261.891 474.871 258.422 476.609L195.984 513.093C193.094 514.83 189.047 514.83 186.156 513.093L137.016 484.716C134.125 482.979 131.812 479.504 131.812 476.03V419.277C131.812 415.802 133.547 412.327 137.016 410.59L199.453 374.106C202.344 372.369 206.391 372.369 209.281 374.106L258.422 402.482C261.313 404.22 263.625 407.694 263.625 411.169Z" fill="#F5F5F5"/>
<path d="M383.875 372.369C383.875 405.378 357.281 432.017 324.328 432.017C291.375 432.017 265.359 405.378 265.359 372.369C265.359 339.359 291.953 312.72 324.906 312.72C357.859 312.72 383.875 339.359 383.875 372.369Z" fill="#F5F5F5"/>
</g>
<defs>
<clipPath id="clip0">
<rect width="444" height="743" fill="white"/>
</clipPath>
</defs>
</svg>
